<?xml version="1.0" encoding="UTF-8" standalone="no"?>
<!-- Created with Inkscape (http://www.inkscape.org/) -->

<svg
   xmlns:dc="http://purl.org/dc/elements/1.1/"
   xmlns:cc="http://creativecommons.org/ns#"
   xmlns:rdf="http://www.w3.org/1999/02/22-rdf-syntax-ns#"
   xmlns:svg="http://www.w3.org/2000/svg"
   xmlns="http://www.w3.org/2000/svg"
   xmlns:sodipodi="http://sodipodi.sourceforge.net/DTD/sodipodi-0.dtd"
   xmlns:inkscape="http://www.inkscape.org/namespaces/inkscape"
   width="210mm"
   height="297mm"
   viewBox="0 0 744.09448819 1052.3622047"
   id="svg5898"
   version="1.1"
   inkscape:version="0.91 r13725"
   sodipodi:docname="Trash Frame.svg">
  <defs
     id="defs5900" />
  <sodipodi:namedview
     id="base"
     pagecolor="#ffffff"
     bordercolor="#666666"
     borderopacity="1.0"
     inkscape:pageopacity="0.0"
     inkscape:pageshadow="2"
     inkscape:zoom="0.49497475"
     inkscape:cx="316.02235"
     inkscape:cy="396.90817"
     inkscape:document-units="px"
     inkscape:current-layer="layer1"
     showgrid="false"
     inkscape:window-width="1366"
     inkscape:window-height="711"
     inkscape:window-x="0"
     inkscape:window-y="0"
     inkscape:window-maximized="1" />
  <metadata
     id="metadata5903">
    <rdf:RDF>
      <cc:Work
         rdf:about="">
        <dc:format>image/svg+xml</dc:format>
        <dc:type
           rdf:resource="http://purl.org/dc/dcmitype/StillImage" />
        <dc:title></dc:title>
      </cc:Work>
    </rdf:RDF>
  </metadata>
  <g
     inkscape:label="Layer 1"
     inkscape:groupmode="layer"
     id="layer1">
    <g
       style="display:inline;opacity:1;enable-background:new"
       id="g4584"
       transform="matrix(2.2769653,0,0,2.2769653,-2250.2069,-640.53956)">
      <path
         sodipodi:nodetypes="ccccccccccccccccc"
         inkscape:connector-curvature="0"
         id="path4957-9"
         d="m 1126.4285,492.07138 c 0,-3 3,-6 6,-6 l 45,0 c 3,0 6,3 6,6 l 10,0 c 3.0001,0 6.0001,2 6.0001,5 l 0,11 c -0.3657,2.95682 -2,5 -4,5 l -3.0001,59 c 0,3 -3.9999,6 -6.9999,6 l -61.0001,0 c -3,0 -7,-3 -7,-6 l -3,-59 c -2,0 -4,-2 -4,-5 l 0,-11 c 0,-3 3,-5 6,-5 z"
         style="opacity:1;fill:#000000;fill-opacity:1;fill-rule:evenodd;stroke:#000000;stroke-width:1px;stroke-linecap:butt;stroke-linejoin:miter;stroke-opacity:1" />
      <path
         sodipodi:nodetypes="ccccc"
         inkscape:connector-curvature="0"
         id="path4967-2"
         d="m 1100.4285,529.07138 c -2,0 -2,6 0,6 l 36,0 c 2,0 2,-6 0,-6 z"
         style="fill:#000000;fill-opacity:1;fill-rule:evenodd;stroke:#000000;stroke-width:1px;stroke-linecap:butt;stroke-linejoin:miter;stroke-opacity:1" />
      <path
         sodipodi:nodetypes="ccccc"
         inkscape:connector-curvature="0"
         id="path4969-5"
         d="m 1092.4285,547.07138 c -2,0 -2,6 0,6 l 48,0 c 2,0 2,-6 0,-6 z"
         style="fill:#000000;fill-opacity:1;fill-rule:evenodd;stroke:#000000;stroke-width:1px;stroke-linecap:butt;stroke-linejoin:miter;stroke-opacity:1" />
      <path
         sodipodi:nodetypes="ccccc"
         inkscape:connector-curvature="0"
         id="path4971-0"
         d="m 1100.4285,557.07138 c -2,0 -2,6 0,6 l 35,0 c 2,0 2,-6 0,-6 z"
         style="fill:#000000;fill-opacity:1;fill-rule:evenodd;stroke:#000000;stroke-width:1px;stroke-linecap:butt;stroke-linejoin:miter;stroke-opacity:1" />
      <path
         sodipodi:nodetypes="ccccccccccccccccc"
         inkscape:connector-curvature="0"
         id="path4957-9-4"
         d="m 1123.4285,490.57138 c 0,-3 3,-6 6,-6 l 45,0 c 3,0 6,3 6,6 l 10.0001,0 c 2.9999,0 6,2 6,5 l 0,11 c -0.3657,2.95682 -2,5 -4.0001,5 l -2.9999,59 c 0,3 -4,6 -7.0001,6 l -61,0 c -3,0 -7,-3 -7,-6 l -3,-59 c -2,0 -4,-2 -4,-5 l 0,-11 c 0,-3 3,-5 6,-5 z"
         style="display:inline;opacity:1;fill:#8e918b;fill-opacity:1;fill-rule:evenodd;stroke:#8e918b;stroke-width:1px;stroke-linecap:butt;stroke-linejoin:miter;stroke-opacity:1;enable-background:new" />
      <path
         sodipodi:nodetypes="ccccccccccccccccccc"
         inkscape:connector-curvature="0"
         id="path4955-1-3"
         d="m 1119.4285,513.57138 3,55 59,0 3.0001,-55 -7.0001,0 c -3,0 -3,-10 0,-10 l 11.0001,0 0,-5 -15.0001,0 c -1.8176,0.0527 -2.0671,-0.87472 -2,-2 l 0,-4 -39,0 0,4 c -0.017,1.20788 -0.5566,1.98061 -2,2 l -15,0 0,5 11,0 c 3,0 3,10 0,10 z"
         style="display:inline;opacity:1;fill:#ffffff;fill-opacity:1;fill-rule:evenodd;stroke:#ffffff;stroke-width:1px;stroke-linecap:butt;stroke-linejoin:miter;stroke-opacity:1;enable-background:new" />
      <path
         sodipodi:nodetypes="ccccc"
         inkscape:connector-curvature="0"
         id="path4967-2-3"
         d="m 1097.4285,527.57138 c -2,0 -2,6 0,6 l 33.7406,0 c 2,0 2,-6 0,-6 z"
         style="display:inline;opacity:1;fill:#8e918b;fill-opacity:1;fill-rule:evenodd;stroke:#8e918b;stroke-width:1px;stroke-linecap:butt;stroke-linejoin:miter;stroke-opacity:1;enable-background:new" />
      <path
         sodipodi:nodetypes="ccccc"
         inkscape:connector-curvature="0"
         id="path4969-5-2"
         d="m 1089.4285,545.57138 c -2,0 -2,6 0,6 l 45.0345,0 c 2,0 2,-6 0,-6 z"
         style="display:inline;opacity:1;fill:#8e918b;fill-opacity:1;fill-rule:evenodd;stroke:#8e918b;stroke-width:1px;stroke-linecap:butt;stroke-linejoin:miter;stroke-opacity:1;enable-background:new" />
      <path
         sodipodi:nodetypes="ccccc"
         inkscape:connector-curvature="0"
         id="path4971-0-3"
         d="m 1097.4285,555.57138 c -2,0 -2,6 0,6 l 35,0 c 2,0 2,-6 0,-6 z"
         style="display:inline;opacity:1;fill:#8e918b;fill-opacity:1;fill-rule:evenodd;stroke:#8e918b;stroke-width:1px;stroke-linecap:butt;stroke-linejoin:miter;stroke-opacity:1;enable-background:new" />
    </g>
  </g>
</svg>
